<svg width="464" height="331" fill="none" xmlns="http://www.w3.org/2000/svg"><path fill="#FFB86C" d="M243 78h201v181H243z"/><path fill="#7480FF" d="M32 80h186v173H32z"/><path d="M463.895 247.9V8.496A8.496 8.496 0 0 0 455.399 0H8.496A8.496 8.496 0 0 0 0 8.496v313.545a8.496 8.496 0 0 0 8.496 8.496h446.903a8.496 8.496 0 0 0 8.496-8.496V247.9ZM40.489 60.59a8.496 8.496 0 0 1-8.496-8.496V30.532a8.496 8.496 0 0 1 8.496-8.495h22.999a8.496 8.496 0 0 1 8.496 8.495v21.562a8.496 8.496 0 0 1-8.496 8.496h-23Zm71.983 0a8.496 8.496 0 0 1-8.496-8.496V30.532a8.496 8.496 0 0 1 8.496-8.495h22.999a8.496 8.496 0 0 1 8.496 8.495v21.562a8.495 8.495 0 0 1-8.496 8.496h-22.999Zm71.984 0a8.496 8.496 0 0 1-8.496-8.496V30.532a8.496 8.496 0 0 1 8.496-8.495h22.999a8.496 8.496 0 0 1 8.496 8.495v21.562a8.496 8.496 0 0 1-8.496 8.496h-22.999Zm71.984 0a8.496 8.496 0 0 1-8.496-8.496V30.532a8.496 8.496 0 0 1 8.496-8.495h22.999a8.496 8.496 0 0 1 8.496 8.495v21.562a8.496 8.496 0 0 1-8.496 8.496H256.44Zm71.983 0a8.496 8.496 0 0 1-8.496-8.496V30.532a8.496 8.496 0 0 1 8.496-8.495h22.999a8.496 8.496 0 0 1 8.496 8.495v21.562a8.495 8.495 0 0 1-8.496 8.496h-22.999Zm71.984 0a8.496 8.496 0 0 1-8.496-8.496V30.532a8.496 8.496 0 0 1 8.496-8.495h22.999a8.496 8.496 0 0 1 8.496 8.495v21.562a8.496 8.496 0 0 1-8.496 8.496h-22.999ZM175.96 247.9H40.489a8.496 8.496 0 0 1-8.496-8.496V91.133a8.496 8.496 0 0 1 8.496-8.496h166.966a8.496 8.496 0 0 1 8.496 8.496v148.271a8.496 8.496 0 0 1-8.496 8.496H175.96Zm215.951 0H256.44a8.496 8.496 0 0 1-8.496-8.496V91.133a8.496 8.496 0 0 1 8.496-8.496h166.966a8.496 8.496 0 0 1 8.496 8.496v148.271a8.496 8.496 0 0 1-8.496 8.496h-31.495ZM40.489 308.501a8.496 8.496 0 0 1-8.496-8.496v-21.572a8.496 8.496 0 0 1 8.496-8.496h22.999a8.496 8.496 0 0 1 8.496 8.496v21.572a8.496 8.496 0 0 1-8.496 8.496h-23Zm71.983 0a8.496 8.496 0 0 1-8.496-8.496v-21.572a8.496 8.496 0 0 1 8.496-8.496h22.999a8.496 8.496 0 0 1 8.496 8.496v21.572a8.496 8.496 0 0 1-8.496 8.496h-22.999Zm71.984 0a8.496 8.496 0 0 1-8.496-8.496v-21.572a8.496 8.496 0 0 1 8.496-8.496h22.999a8.496 8.496 0 0 1 8.496 8.496v21.572a8.496 8.496 0 0 1-8.496 8.496h-22.999Zm71.984 0a8.496 8.496 0 0 1-8.496-8.496v-21.572a8.496 8.496 0 0 1 8.496-8.496h22.999a8.496 8.496 0 0 1 8.496 8.496v21.572a8.496 8.496 0 0 1-8.496 8.496H256.44Zm71.983 0a8.496 8.496 0 0 1-8.496-8.496v-21.572a8.496 8.496 0 0 1 8.496-8.496h22.999a8.496 8.496 0 0 1 8.496 8.496v21.572a8.496 8.496 0 0 1-8.496 8.496h-22.999Zm71.984 0a8.496 8.496 0 0 1-8.496-8.496v-21.572a8.496 8.496 0 0 1 8.496-8.496h22.999a8.496 8.496 0 0 1 8.496 8.496v21.572a8.496 8.496 0 0 1-8.496 8.496h-22.999Z" fill="#E5E7EB"/></svg>